C:\Users\Nicos\Documents\OpenSimProjects\SprintingProject\Study1\PredictiveResults\IC_pred_Sprinting_optimum_28-October-2023__13-58-45_p02_maxVel_01___IKTD_Minus_6_GRF.mot
version=1
nRows=106
nColumns=10
inDegrees=yes
endheader
time	ground_force_vx	ground_force_vy	ground_force_vz	ground_force_px	ground_force_py	ground_force_pz	ground_torque_x	ground_torque_y	ground_torque_z
0.056000	-74.424133	39.999999	13.848047	0.354760	0.000000	0.445832	-17.833288	-38.092428	14.190416
0.056648	-111.279274	60.404712	18.412841	0.356273	0.000000	0.445575	-26.914837	-56.140545	21.520595
0.058696	-252.036336	143.436345	17.434549	0.359807	0.000000	0.444936	-63.819935	-118.371293	51.609370
0.060181	-378.083704	226.008897	-2.203396	0.360411	0.000000	0.445169	-100.612253	-167.344175	81.456163
0.060829	-453.780909	278.654339	-14.519682	0.359150	0.000000	0.445664	-124.186318	-196.707208	100.078731
0.062877	-736.255912	503.578866	-65.872855	0.353562	0.000000	0.446691	-224.944043	-304.339015	178.046434
0.064361	-939.598481	732.434493	-108.590588	0.349359	0.000000	0.447577	-327.820732	-380.010632	255.882642
0.065010	-1012.658487	851.109430	-132.619844	0.347579	0.000000	0.447876	-381.191320	-403.948707	295.827915
0.067058	-1141.819446	1290.074402	-193.018089	0.341319	0.000000	0.448493	-578.589357	-437.294389	440.326769
0.068542	-1139.052329	1707.601890	-202.361306	0.332237	0.000000	0.448608	-766.043522	-423.733109	567.328534
0.069190	-1102.419496	1902.215214	-203.626714	0.328231	0.000000	0.448676	-853.477854	-400.808300	624.365371
0.071238	-847.535630	2496.734255	-147.069225	0.318000	0.000000	0.448970	-1120.959527	-283.612389	793.962323
0.072723	-577.365151	2874.393668	-95.223087	0.312423	0.000000	0.449087	-1290.852995	-167.035909	898.027308
0.073371	-450.505754	3023.669318	-73.286298	0.310431	0.000000	0.449118	-1357.983156	-114.398131	938.641734
0.075419	-233.546416	3457.731593	-66.423620	0.305718	0.000000	0.448993	-1552.498398	-17.510210	1057.090376
0.076903	-184.416588	3731.292603	-132.876744	0.303630	0.000000	0.448722	-1674.312858	20.410109	1132.932528
0.077552	-119.220233	3830.097974	-191.391532	0.303037	0.000000	0.448486	-1717.745674	56.550932	1160.662180
0.079600	20.706249	4082.004583	-282.206554	0.302380	0.000000	0.448070	-1829.022349	132.202696	1234.317720
0.081084	87.359925	4208.877624	-225.101731	0.302897	0.000000	0.448365	-1887.113256	155.757317	1274.857523
0.081732	133.902232	4247.708425	-266.837838	0.303441	0.000000	0.448219	-1903.902329	182.654150	1288.927641
0.083780	244.451646	4294.630324	-261.456027	0.305477	0.000000	0.448385	-1925.648471	229.893428	1311.909534
0.085265	318.197514	4266.732035	-251.081088	0.307455	0.000000	0.448550	-1913.842791	259.538785	1311.828169
0.085913	338.789845	4244.462904	-247.759628	0.308529	0.000000	0.448629	-1904.188940	267.639121	1309.539795
0.087961	406.589582	4121.056032	-232.194915	0.312658	0.000000	0.448929	-1850.062958	293.686666	1288.479514
0.089445	449.420501	3985.299810	-214.882733	0.316322	0.000000	0.449218	-1790.270271	308.158120	1260.638902
0.090094	473.830547	3914.178547	-205.146904	0.318108	0.000000	0.449365	-1758.892990	316.119859	1245.132872
0.092142	541.105693	3654.512970	-179.623442	0.324529	0.000000	0.449760	-1643.653326	336.160773	1185.995475
0.093626	549.304711	3440.587298	-168.363833	0.329837	0.000000	0.450054	-1548.450920	333.999849	1134.832997
0.094274	571.240290	3341.806055	-149.679786	0.332422	0.000000	0.450294	-1504.796440	339.129787	1110.891496
0.096322	598.642935	3024.241135	-127.326535	0.341220	0.000000	0.450813	-1363.367068	339.611224	1031.932558
0.097807	604.253146	2792.449165	-113.996576	0.348109	0.000000	0.451212	-1259.986578	334.876749	972.076679
0.098455	612.124673	2694.700972	-105.212576	0.351317	0.000000	0.451408	-1216.410897	332.910581	946.693192
0.100503	610.989097	2401.682527	-97.649388	0.361104	0.000000	0.451978	-1085.506682	323.231470	867.257479
0.101987	618.751818	2226.839858	-84.365867	0.366217	0.000000	0.452308	-1007.216786	319.934881	815.506836
0.102636	621.969510	2155.768341	-77.605596	0.368033	0.000000	0.452448	-975.373295	318.625090	793.394434
0.104684	629.319596	1929.565260	-57.769099	0.374047	0.000000	0.452948	-873.993393	313.095627	721.747581
0.106168	626.158333	1756.936293	-41.402484	0.378661	0.000000	0.453343	-796.494848	305.456917	665.283401
0.106816	625.619136	1679.742538	-31.764373	0.380765	0.000000	0.453539	-761.829121	301.743400	639.587713
0.108864	608.825012	1447.247614	-5.798159	0.387729	0.000000	0.454211	-657.355426	283.909631	561.139766
0.110349	584.044019	1299.464801	8.456338	0.392412	0.000000	0.454694	-590.858475	266.433854	509.924940
0.110997	570.990009	1236.902516	11.897906	0.394405	0.000000	0.454910	-562.679641	258.745032	487.839984
0.113045	532.339487	1049.700848	24.933505	0.400612	0.000000	0.455713	-478.362564	234.887548	420.522786
0.114529	513.375974	923.467744	34.367244	0.403829	0.000000	0.456117	-421.209043	221.567026	372.923467
0.115178	498.356785	871.422850	38.624767	0.404873	0.000000	0.456245	-397.582189	212.685587	352.816010
0.117226	444.470847	727.438663	49.375612	0.406463	0.000000	0.456110	-331.791696	183.012218	295.677078
0.118710	403.543887	630.179045	56.017275	0.406809	0.000000	0.455854	-287.269361	161.291095	256.362752
0.119358	386.231801	590.468698	59.530641	0.406685	0.000000	0.455783	-269.125600	151.891422	240.134986
0.121406	326.152267	475.337884	62.926860	0.404555	0.000000	0.455577	-216.553030	123.138859	192.300087
0.122891	272.945689	390.531295	59.197945	0.402250	0.000000	0.455280	-177.801002	100.455267	157.091361
0.123539	248.041677	353.403441	55.332428	0.401119	0.000000	0.455074	-160.824853	90.682840	141.756780
0.125587	172.402448	238.099336	53.778529	0.397376	0.000000	0.454772	-108.280931	57.033529	94.614964
0.127071	114.638019	159.062421	49.635898	0.394252	0.000000	0.454321	-72.265326	32.513351	62.710691
0.127720	89.202384	127.044580	44.605432	0.392760	0.000000	0.453905	-57.666196	22.970177	49.898084
0.129768	26.455883	43.475702	21.578700	0.388318	0.000000	0.451605	-19.633851	3.568210	16.882409
0.131252	3.547959	7.586390	4.646791	0.385879	0.000000	0.448715	-3.404125	-0.201078	2.927429
0.131900	1.216114	3.170571	2.108617	0.385265	0.000000	0.447075	-1.417482	-0.268683	1.221511
0.133948	-0.000635	0.069890	0.052009	0.386753	0.000000	0.440907	-0.030815	-0.020394	0.027030
0.135433	-0.000503	0.001452	0.001001	0.392015	0.000000	0.436799	-0.000634	-0.000612	0.000569
0.136081	-0.000112	0.000232	0.000149	0.395352	0.000000	0.435441	-0.000101	-0.000108	0.000092
0.138129	-0.000000	0.000000	0.000000	0.409576	0.000000	0.433510	-0.000000	-0.000000	0.000000
0.139613	-0.000000	0.000000	0.000000	0.423104	0.000000	0.434095	-0.000000	-0.000000	0.000000
0.140262	-0.000000	0.000000	0.000000	0.429839	0.000000	0.434740	-0.000000	-0.000000	0.000000
0.142310	-0.000000	0.000000	0.000000	0.454306	0.000000	0.437706	-0.000000	-0.000000	0.000000
0.143794	-0.000000	0.000000	-0.000000	NaN	0.000000	NaN	0.000000	0.000000	0.000000
0.144442	-0.000000	0.000000	-0.000000	NaN	0.000000	NaN	0.000000	0.000000	0.000000
0.146490	-0.000000	0.000000	-0.000000	NaN	0.000000	NaN	0.000000	0.000000	0.000000
0.147975	-0.000000	0.000000	-0.000000	NaN	0.000000	NaN	0.000000	0.000000	0.000000
0.148623	-0.000000	0.000000	-0.000000	NaN	0.000000	NaN	0.000000	0.000000	0.000000
0.150671	-0.000000	0.000000	0.000000	NaN	0.000000	NaN	0.000000	0.000000	0.000000
0.152155	-0.000000	0.000000	0.000000	NaN	0.000000	NaN	0.000000	0.000000	0.000000
0.152804	-0.000000	0.000000	0.000000	NaN	0.000000	NaN	0.000000	0.000000	0.000000
0.154852	-0.000000	0.000000	0.000000	NaN	0.000000	NaN	0.000000	0.000000	0.000000
0.156336	-0.000000	0.000000	0.000000	NaN	0.000000	NaN	0.000000	0.000000	0.000000
0.156984	-0.000000	0.000000	0.000000	NaN	0.000000	NaN	0.000000	0.000000	0.000000
0.159032	-0.000000	0.000000	0.000000	NaN	0.000000	NaN	0.000000	0.000000	0.000000
0.160517	-0.000000	0.000000	0.000000	NaN	0.000000	NaN	0.000000	0.000000	0.000000
0.161165	-0.000000	0.000000	0.000000	NaN	0.000000	NaN	0.000000	0.000000	0.000000
0.163213	-0.000000	0.000000	0.000000	NaN	0.000000	NaN	0.000000	0.000000	0.000000
0.164697	-0.000000	0.000000	0.000000	NaN	0.000000	NaN	0.000000	0.000000	0.000000
0.165346	-0.000000	0.000000	0.000000	NaN	0.000000	NaN	0.000000	0.000000	0.000000
0.167394	-0.000000	0.000000	0.000000	NaN	0.000000	NaN	0.000000	0.000000	0.000000
0.168878	-0.000000	0.000000	-0.000000	NaN	0.000000	NaN	0.000000	0.000000	0.000000
0.169526	-0.000000	0.000000	-0.000000	NaN	0.000000	NaN	0.000000	0.000000	0.000000
0.171574	-0.000000	0.000000	-0.000000	NaN	0.000000	NaN	0.000000	0.000000	0.000000
0.173059	-0.000000	0.000000	-0.000000	NaN	0.000000	NaN	0.000000	0.000000	0.000000
0.173707	-0.000000	0.000000	0.000000	NaN	0.000000	NaN	0.000000	0.000000	0.000000
0.175755	-0.000000	0.000000	0.000000	NaN	0.000000	NaN	0.000000	0.000000	0.000000
0.177239	-0.000000	0.000000	0.000000	NaN	0.000000	NaN	0.000000	0.000000	0.000000
0.177888	-0.000000	0.000000	0.000000	NaN	0.000000	NaN	0.000000	0.000000	0.000000
0.179936	-0.000000	0.000000	0.000000	NaN	0.000000	NaN	0.000000	0.000000	0.000000
0.181420	-0.000000	0.000000	-0.000000	NaN	0.000000	NaN	0.000000	0.000000	0.000000
0.182068	-0.000000	0.000000	-0.000000	NaN	0.000000	NaN	0.000000	0.000000	0.000000
0.184116	-0.000000	0.000000	-0.000000	NaN	0.000000	NaN	0.000000	0.000000	0.000000
0.185601	-0.000000	0.000000	-0.000000	NaN	0.000000	NaN	0.000000	0.000000	0.000000
0.186249	-0.000000	0.000000	-0.000000	NaN	0.000000	NaN	0.000000	0.000000	0.000000
0.188297	-0.000000	0.000000	-0.000000	NaN	0.000000	NaN	0.000000	0.000000	0.000000
0.189782	-0.000000	0.000000	-0.000000	NaN	0.000000	NaN	0.000000	0.000000	0.000000
0.190430	-0.000000	0.000000	-0.000000	NaN	0.000000	NaN	0.000000	0.000000	0.000000
0.192478	-0.000000	0.000000	-0.000000	NaN	0.000000	NaN	0.000000	0.000000	0.000000
0.193962	-0.000000	0.000000	-0.000000	NaN	0.000000	NaN	0.000000	0.000000	0.000000
0.194610	-0.000000	0.000000	-0.000000	NaN	0.000000	NaN	0.000000	0.000000	0.000000
0.196658	-0.000000	0.000000	-0.000000	NaN	0.000000	NaN	0.000000	0.000000	0.000000
0.198143	-0.000000	0.000000	-0.000000	NaN	0.000000	NaN	0.000000	0.000000	0.000000
0.198791	-0.000000	0.000000	-0.000000	NaN	0.000000	NaN	0.000000	0.000000	0.000000
0.200839	-0.000000	0.000000	-0.000000	NaN	0.000000	NaN	0.000000	0.000000	0.000000
0.202324	-0.000000	0.000000	-0.000000	NaN	0.000000	NaN	0.000000	0.000000	0.000000
